<svg width="277" height="288" viewBox="0 0 277 288" fill="none" xmlns="http://www.w3.org/2000/svg">
<path d="M240.044 63.4206C250.065 63.4206 258.189 54.6196 258.189 43.7631C258.189 32.9065 250.065 24.1055 240.044 24.1055C230.022 24.1055 221.898 32.9065 221.898 43.7631C221.898 54.6196 230.022 63.4206 240.044 63.4206Z" fill="#3F3F3F"/>
<path d="M39.0198 110.756C39.0307 101.208 30.3092 93.4577 19.5396 93.4453C8.77009 93.433 0.0307731 101.163 0.0198244 110.711C0.00887569 120.26 8.73044 128.01 19.5 128.022C30.2695 128.035 39.0089 120.304 39.0198 110.756Z" fill="#3F3F3F"/>
<path d="M238.177 93.5533C234.468 93.5514 230.807 94.4461 227.458 96.1722C223.007 98.6079 218.1 99.9073 213.114 99.9706C212.395 99.9598 211.615 99.9598 210.766 99.9598C207.715 99.9605 204.693 99.3099 201.874 98.0452C199.055 96.7804 196.493 94.9264 194.335 92.5889C192.178 90.2514 190.466 87.4762 189.299 84.422C188.132 81.3677 187.531 78.0943 187.532 74.7885C187.532 74.518 186.408 71.0172 194.929 48.8273C196.776 44.0043 197.612 38.7974 197.377 33.582C197.143 28.3666 195.843 23.2725 193.572 18.6669C191.301 14.0613 188.115 10.0589 184.244 6.94813C180.372 3.83736 175.912 1.69573 171.185 0.677574C166.458 -0.340581 161.581 -0.209896 156.905 1.06021C152.23 2.33032 147.874 4.70821 144.149 8.02251C140.425 11.3368 137.425 15.505 135.367 20.2266C133.309 24.9482 132.243 30.1056 132.247 35.3273C132.247 73.7496 78.6401 56.5053 71.8275 25.5444C70.7203 21.6916 68.6554 18.2434 65.8591 15.5777C63.0628 12.912 59.6431 11.1317 55.9748 10.432C53.3439 10.1118 50.6802 10.405 48.1625 11.2917C45.6448 12.1785 43.3312 13.6384 41.3772 15.5734C39.4231 17.5085 37.8736 19.8739 36.8327 22.511C35.7918 25.1481 35.2836 27.9959 35.3422 30.8633C35.505 33.8957 36.3018 36.8483 37.6724 39.4982C39.0429 42.1481 40.9514 44.426 43.2536 46.1598C53.3901 54.0885 62.7014 63.187 71.0234 73.2951C71.8826 74.4128 72.4568 75.7547 72.6889 77.1873C72.921 78.6199 72.8029 80.0935 72.3464 81.4613C71.8898 82.8292 71.1107 84.0437 70.0865 84.9842C69.0623 85.9247 67.8287 86.5584 66.5083 86.8222L66.2286 86.898C63.7834 87.5493 61.4842 88.727 59.4679 90.361C57.4516 91.9949 55.7593 94.0516 54.4919 96.4087C53.2245 98.7658 52.4078 101.375 52.0905 104.081C51.7731 106.787 51.9617 109.535 52.6448 112.161C53.328 114.786 54.4918 117.236 56.067 119.364C57.6422 121.492 59.5965 123.255 61.8137 124.548C64.0308 125.841 66.4655 126.638 68.9727 126.89C71.4799 127.143 74.0083 126.846 76.4075 126.018C77.8666 125.539 79.4245 125.544 80.881 126.032C82.3376 126.52 83.6261 127.468 84.581 128.756C85.5358 130.044 86.1134 131.611 86.2394 133.257C86.3653 134.903 86.034 136.552 85.2879 137.993C83.2105 142.474 80.2672 146.418 76.658 149.558C73.0488 152.698 68.8581 154.959 64.3706 156.189C59.5153 156.779 54.8422 158.533 50.691 161.324C46.5397 164.115 43.0146 167.873 40.3717 172.324C21.5122 206.932 47.5539 242.6 78.8349 236.356C86.1394 234.851 92.8662 231.029 98.161 225.373C103.456 219.718 107.08 212.486 108.573 204.595C108.606 204.429 108.636 204.261 108.662 204.091C108.989 201.819 109.761 199.648 110.926 197.725C112.09 195.803 113.621 194.171 115.415 192.942C117.209 191.712 119.225 190.912 121.328 190.595C123.43 190.278 125.571 190.452 127.607 191.105C131.084 192.299 134.645 193.183 138.255 193.746C140.066 193.975 141.77 194.789 143.146 196.084C144.522 197.379 145.506 199.093 145.969 201.003C146.432 202.912 146.352 204.929 145.741 206.789C145.129 208.649 144.014 210.266 142.541 211.428C139.504 214.101 137.317 217.737 136.286 221.826C135.255 225.915 135.432 230.25 136.793 234.224C138.153 238.198 140.628 241.611 143.87 243.983C147.112 246.355 150.959 247.567 154.87 247.449C158.781 247.331 162.559 245.889 165.675 243.325C168.79 240.762 171.086 237.205 172.24 233.155C173.394 229.106 173.349 224.766 172.109 220.746C170.87 216.726 168.5 213.227 165.331 210.741C159.607 206.234 159.997 193.919 167.828 191.333C170.61 190.41 173.331 189.28 175.969 187.951C186.493 182.67 198.345 194.677 197.171 205.087C196.859 207.886 196.963 210.721 197.481 213.485C198.681 219.752 201.98 225.317 206.742 229.107C211.504 232.896 217.392 234.643 223.271 234.01C229.151 233.377 234.607 230.409 238.587 225.678C242.567 220.948 244.791 214.789 244.829 208.388C244.726 204.722 243.891 201.124 242.381 197.842C240.872 194.559 238.723 191.67 236.084 189.374C233.969 187.099 231.456 185.305 228.693 184.096C225.93 182.887 222.971 182.288 219.991 182.334C209.363 182.886 199.733 169.727 205.692 158.943L205.847 158.662C208.408 153.96 212.23 150.213 216.805 147.921C221.31 145.979 226.319 145.908 230.87 147.721C235.799 149.414 241.098 149.36 245.998 147.57C251.802 145.559 256.751 141.365 259.952 135.747C263.152 130.129 264.392 123.456 263.448 116.934C262.504 110.412 259.439 104.471 254.805 100.183C250.172 95.895 244.27 93.5436 238.177 93.5533Z" fill="#3F3F3F"/>
<ellipse cx="270.5" cy="228" rx="6.5" ry="8" fill="#447B3B"/>
<ellipse cx="98.5" cy="16" rx="6.5" ry="8" fill="#447B3B"/>
<ellipse cx="19.5005" cy="171.001" rx="6.5" ry="8" transform="rotate(48.8439 19.5005 171.001)" fill="#447B3B"/>
<ellipse cx="119" cy="271" rx="14" ry="17" fill="#3A1C1C"/>
</svg>
