<svg width="258" height="219" viewBox="0 0 258 219" fill="none" xmlns="http://www.w3.org/2000/svg">
<path d="M160.537 218.998C159.013 218.996 157.536 218.472 156.358 217.517C155.18 216.562 154.373 215.233 154.074 213.756C151.365 200.377 140.919 198.318 121.143 195.566C115.49 194.778 109.647 193.965 103.663 192.654C88.519 189.3 74.374 182.508 62.3485 172.817C50.6066 163.224 41.1475 151.195 34.6432 137.583C28.139 123.972 24.7492 109.113 24.7148 94.0612C24.7526 76.1311 29.3717 58.5005 38.144 42.8034C38.9887 41.2894 40.4077 40.169 42.0888 39.6885C43.7698 39.208 45.5753 39.4069 47.1079 40.2413C48.6405 41.0758 49.7748 42.4774 50.2612 44.138C50.7476 45.7986 50.5463 47.582 49.7016 49.0959C42.003 62.8653 37.9477 78.3315 37.9112 94.0612C37.9368 107.18 40.8869 120.133 46.5521 131.998C52.2172 143.864 60.4583 154.351 70.6898 162.715C81.1182 171.123 93.3853 177.015 106.519 179.927C111.998 181.127 117.584 181.905 122.985 182.656C142.335 185.35 162.345 188.135 167.014 211.199C167.205 212.145 167.18 213.121 166.943 214.057C166.706 214.993 166.262 215.865 165.642 216.611C165.023 217.357 164.244 217.958 163.361 218.37C162.478 218.783 161.513 218.998 160.537 218.998Z" fill="#FFCD52"/>
<path d="M97.4635 219C96.4869 219 95.5225 218.786 94.6396 218.374C93.7568 217.961 92.9775 217.36 92.3581 216.615C91.7386 215.869 91.2942 214.997 91.0571 214.061C90.8199 213.125 90.7958 212.149 90.9865 211.203C95.6556 188.137 115.666 185.352 135.017 182.659C140.418 181.907 146.002 181.13 151.482 179.929C164.616 177.018 176.883 171.125 187.31 162.718C197.542 154.354 205.783 143.866 211.448 132.001C217.114 120.135 220.064 107.183 220.089 94.0636C220.053 78.3336 215.998 62.8671 208.3 49.0971C207.865 48.3466 207.586 47.5181 207.479 46.66C207.372 45.8019 207.439 44.9313 207.675 44.0989C207.912 43.2665 208.314 42.4889 208.858 41.8115C209.402 41.134 210.077 40.5703 210.843 40.153C211.61 39.7357 212.453 39.4733 213.323 39.381C214.194 39.2887 215.074 39.3684 215.913 39.6154C216.751 39.8623 217.532 40.2717 218.209 40.8197C218.886 41.3676 219.446 42.0431 219.856 42.8069C228.628 58.5039 233.247 76.1339 233.285 94.0636C233.251 109.115 229.862 123.975 223.357 137.586C216.853 151.197 207.394 163.227 195.652 172.819C183.627 182.51 169.482 189.302 154.339 192.657C148.355 193.967 142.51 194.782 136.858 195.567C117.082 198.32 106.636 200.378 103.927 213.758C103.628 215.234 102.821 216.563 101.643 217.519C100.465 218.474 98.988 218.998 97.4635 219Z" fill="#FFCD52"/>
<path d="M51.1588 0C48.8746 1.83089 39.396 9.86666 38.5706 17.7389C37.756 25.4997 44.8377 30.6345 44.9745 30.6156C45.0932 30.6867 53.6529 28.7373 56.0114 21.2893C58.406 13.7382 51.1588 0 51.1588 0ZM17.4684 28.3012C17.7455 31.0315 19.2439 42.5999 25.1055 47.3341C30.8867 52.0032 38.6702 49.1484 38.7266 49.0323C38.8453 48.9766 41.7341 41.2869 37.0086 35.5773C32.216 29.786 17.4684 28.3012 17.4684 28.3012ZM69.8844 27.7134C69.8844 27.7134 68.0573 42.5999 62.1945 47.3341C60.3452 48.8379 58.1074 49.8015 55.7333 50.1162C53.3593 50.4309 50.9435 50.0842 48.7582 49.1153L48.4883 48.8486C47.5076 46.6902 47.1568 44.304 47.4754 41.9592C47.794 39.6143 48.7693 37.404 50.2914 35.5773C55.0841 29.786 69.8844 27.7134 69.8844 27.7134ZM7.01807 54.4207C7.25441 57.3632 8.60644 69.8322 14.8039 75.0499C20.9151 80.193 29.3463 77.2932 29.4099 77.1688C29.5383 77.1119 32.8158 68.909 27.8624 62.6674C22.8381 56.3381 7.01807 54.4207 7.01807 54.4207ZM63.3798 54.9267C63.3798 54.9267 61.0836 70.8916 54.6762 75.8546C52.6547 77.431 50.2277 78.4182 47.6686 78.7051C45.1095 78.9919 42.5202 78.567 40.1926 77.4781L39.9082 77.1842C38.902 74.8426 38.5778 72.2699 38.9723 69.7561C39.3668 67.2423 40.4642 64.8873 42.1408 62.9566C47.423 56.8334 63.3798 54.9267 63.3798 54.9267ZM0 91.2518C1.01132 94.2654 5.66005 106.943 13.4867 110.822C21.2018 114.646 29.254 109.483 29.2876 109.337C29.4075 109.244 30.7008 99.8481 23.9082 94.5853C17.0185 89.2479 0 91.2518 0 91.2518ZM58.9878 77.5077C58.9878 77.5077 60.7345 94.7595 55.3312 101.564C53.6294 103.722 51.3512 105.368 48.7533 106.315C46.1554 107.263 43.3412 107.474 40.6281 106.926L40.255 106.693C38.5961 104.503 37.5896 101.898 37.349 99.1729C37.1084 96.4478 37.6433 93.7105 38.8933 91.2696C42.8198 83.5396 58.9878 77.5077 58.9878 77.5077ZM3.90253 127.771C5.4585 130.818 12.425 143.58 21.3673 146.488C30.1849 149.354 37.9264 142.609 37.9384 142.449C38.0512 142.332 37.9264 132.136 29.8634 127.596C21.6841 122.99 3.90253 127.771 3.90253 127.771ZM64.4523 103.971C64.4523 103.971 69.0614 122.049 64.3995 130.128C62.9336 132.688 60.7728 134.793 58.1607 136.205C55.5487 137.617 52.5892 138.281 49.616 138.12L49.1817 137.931C47.068 135.859 45.5822 133.245 44.8919 130.384C44.2015 127.523 44.334 124.528 45.2744 121.737C48.2172 112.903 64.4523 103.971 64.4523 103.971ZM17.7575 155.816C19.6554 158.971 28.0867 172.151 37.8976 174.616C47.5705 177.045 55.3684 169.243 55.3696 169.07C55.4812 168.937 54.585 158.009 45.5923 153.728C36.4748 149.386 17.7575 155.816 17.7575 155.816ZM80.9262 125.854C80.9262 125.854 87.2269 144.909 82.8313 153.918C81.4508 156.772 79.2906 159.188 76.5944 160.894C73.8982 162.6 70.7731 163.528 67.5715 163.574L67.0916 163.401C64.669 161.333 62.8792 158.638 61.9241 155.619C60.969 152.601 60.8865 149.378 61.6859 146.316C64.1812 136.625 80.9262 125.854 80.9262 125.854ZM43.5409 183.439C46.1381 186.306 57.5086 198.186 68.1077 198.765C78.5568 199.334 84.9871 189.75 84.9523 189.572C85.0399 189.412 81.8823 178.347 71.7559 175.736C61.4831 173.088 43.5409 183.439 43.5409 183.439ZM102.411 140.006C102.411 140.006 112.791 158.356 110.109 168.501C109.272 171.713 107.544 174.63 105.118 176.923C102.693 179.217 99.6676 180.795 96.3828 181.481L95.8549 181.399C92.9391 179.755 90.5462 177.339 88.9459 174.424C87.3455 171.508 86.6014 168.209 86.7974 164.899C87.3828 154.428 102.411 140.006 102.411 140.006ZM206.842 0C209.125 1.83089 218.604 9.86666 219.429 17.7389C220.244 25.4997 213.164 30.6345 213.026 30.6156C212.908 30.6867 204.348 28.7373 201.989 21.2893C199.594 13.7382 206.842 0 206.842 0ZM240.532 28.3012C240.256 31.0315 238.757 42.5999 232.894 47.3341C227.113 52.0032 219.33 49.1484 219.273 49.0323C219.155 48.9766 216.266 41.2869 220.991 35.5773C225.784 29.786 240.532 28.3012 240.532 28.3012ZM188.116 27.7134C188.116 27.7134 189.943 42.5999 195.805 47.3341C197.655 48.8379 199.893 49.8015 202.267 50.1162C204.641 50.4309 207.057 50.0842 209.242 49.1153L209.512 48.8486C210.492 46.6902 210.843 44.304 210.525 41.9592C210.206 39.6143 209.231 37.404 207.709 35.5773C202.916 29.786 188.116 27.7134 188.116 27.7134ZM250.983 54.4207C250.746 57.3632 249.394 69.8322 243.196 75.0499C237.085 80.193 228.654 77.2932 228.59 77.1688C228.462 77.1119 225.185 68.909 230.138 62.6674C235.162 56.3381 250.983 54.4207 250.983 54.4207ZM194.621 54.9267C194.621 54.9267 196.916 70.8904 203.324 75.8546C205.345 77.431 207.772 78.4182 210.331 78.7051C212.89 78.9919 215.48 78.567 217.807 77.4781L218.092 77.1842C219.098 74.8426 219.422 72.2699 219.028 69.7561C218.633 67.2423 217.536 64.8873 215.859 62.9566C210.577 56.8334 194.621 54.9267 194.621 54.9267ZM258 91.2518C256.989 94.2654 252.34 106.943 244.514 110.822C236.798 114.646 228.746 109.483 228.712 109.337C228.592 109.244 227.299 99.8481 234.092 94.5853C240.981 89.2479 258 91.2518 258 91.2518ZM199.012 77.5077C199.012 77.5077 197.265 94.7595 202.669 101.564C204.371 103.722 206.649 105.368 209.247 106.315C211.845 107.263 214.659 107.474 217.372 106.926L217.745 106.693C219.404 104.503 220.41 101.898 220.651 99.1729C220.892 96.4478 220.357 93.7105 219.107 91.2696C215.18 83.5396 199.012 77.5077 199.012 77.5077ZM254.097 127.771C252.543 130.818 245.575 143.58 236.633 146.488C227.815 149.354 220.074 142.609 220.062 142.449C219.949 142.332 220.074 132.136 228.137 127.596C236.316 122.99 254.097 127.771 254.097 127.771ZM193.548 103.971C193.548 103.971 188.939 122.049 193.6 130.128C195.066 132.688 197.227 134.793 199.839 136.205C202.451 137.617 205.411 138.281 208.384 138.12L208.818 137.931C210.932 135.859 212.418 133.245 213.108 130.384C213.799 127.523 213.666 124.528 212.726 121.737C209.783 112.903 193.548 103.971 193.548 103.971ZM240.242 155.816C238.345 158.971 229.913 172.151 220.104 174.616C210.429 177.045 202.632 169.243 202.63 169.07C202.519 168.937 203.415 158.009 212.408 153.728C221.525 149.386 240.242 155.816 240.242 155.816ZM177.074 125.854C177.074 125.854 170.773 144.909 175.169 153.918C176.549 156.772 178.709 159.188 181.406 160.894C184.102 162.6 187.227 163.528 190.429 163.574L190.908 163.401C193.331 161.333 195.121 158.638 196.076 155.619C197.031 152.601 197.114 149.378 196.314 146.316C193.819 136.625 177.074 125.854 177.074 125.854ZM214.46 183.439C211.862 186.306 200.493 198.186 189.893 198.765C179.443 199.334 173.014 189.75 173.048 189.572C172.96 189.412 176.119 178.347 186.244 175.736C196.517 173.088 214.46 183.439 214.46 183.439ZM155.589 140.006C155.589 140.006 145.209 158.356 147.891 168.501C148.728 171.713 150.456 174.63 152.882 176.923C155.307 179.217 158.332 180.795 161.617 181.481L162.145 181.399C165.061 179.755 167.454 177.339 169.054 174.424C170.654 171.508 171.399 168.209 171.203 164.899C170.617 154.428 155.589 140.006 155.589 140.006Z" fill="#F29327"/>
<circle cx="60" cy="60" r="58" transform="matrix(-1 0 0 1 190 21)" fill="white" stroke="#C30047" stroke-width="4"/>
<path d="M130 131C102.43 131 80 108.57 80 81C80 53.4297 102.43 31 130 31C157.57 31 180 53.4297 180 81C180 108.57 157.57 131 130 131Z" fill="#FF3838"/>
<path d="M130 31V131C157.57 131 180 108.57 180 81C180 53.4297 157.57 31 130 31Z" fill="#C30047"/>
<path d="M138.791 113.219H121.217C119.599 113.219 118.288 111.908 118.288 110.29V92.7166H100.714C99.0959 92.7166 97.7852 91.4051 97.7852 89.7869V72.2135C97.7852 70.5953 99.0959 69.2838 100.714 69.2838H118.288V51.7102C118.288 50.092 119.599 48.7812 121.217 48.7812H138.791C140.409 48.7812 141.721 50.092 141.721 51.7102V69.2838H159.294C160.912 69.2838 162.223 70.5953 162.223 72.2135V89.7869C162.223 91.4051 160.912 92.7166 159.294 92.7166H141.721V110.29C141.721 111.908 140.409 113.219 138.791 113.219V113.219Z" fill="#FFDBA5"/>
<path d="M159.29 69.2838H141.716V51.7102C141.716 50.092 140.405 48.7812 138.787 48.7812H130V113.219H138.787C140.405 113.219 141.716 111.908 141.716 110.29V92.7166H159.29C160.908 92.7166 162.219 91.4051 162.219 89.7869V72.2135C162.219 70.5953 160.908 69.2838 159.29 69.2838Z" fill="#FFA600"/>
</svg>
