<svg width="155" height="155" viewBox="0 0 155 155" fill="none" xmlns="http://www.w3.org/2000/svg">
<circle cx="77.5" cy="77.5" r="72.5" fill="#FFB7BC" stroke="#FF4C59" stroke-width="10"/>
<path fill-rule="evenodd" clip-rule="evenodd" d="M58.9219 97.0556C58.9219 90.0588 70.7964 84.0098 85.4461 84.0098C100.096 84.0098 111.97 90.0586 111.97 97.0556V107.927C111.97 114.924 100.096 120.973 85.4461 120.973C70.7964 120.973 58.9219 114.924 58.9219 107.927V97.0556Z" fill="#FE9923"/>
<path fill-rule="evenodd" clip-rule="evenodd" d="M85.4461 84.0098C100.096 84.0098 111.97 89.8477 111.97 97.0556C111.97 104.258 100.096 110.101 85.4461 110.101C70.7964 110.101 58.9219 104.258 58.9219 97.0556C58.9219 89.8479 70.7964 84.0098 85.4461 84.0098Z" fill="#FECD3D"/>
<path fill-rule="evenodd" clip-rule="evenodd" d="M85.4482 84.0098C90.0122 84.0098 94.9364 85.2389 98.7103 86.1841C98.7103 93.3053 87.1767 99.2299 72.1861 99.2299C67.6463 99.2299 62.6858 97.9902 58.9241 97.0556C58.8839 96.7687 58.9242 97.3475 58.9241 97.0556C58.9239 89.9344 70.4537 84.0098 85.4482 84.0098Z" fill="#CEA732"/>
<path fill-rule="evenodd" clip-rule="evenodd" d="M85.4454 90.5312C97.3493 90.5312 106.996 93.4522 106.996 97.0542C106.996 100.656 97.3493 103.577 85.4454 103.577C73.5456 103.577 63.8945 100.656 63.8945 97.0542C63.8945 93.4522 73.5455 90.5312 85.4454 90.5312Z" fill="#FEA832"/>
<path fill-rule="evenodd" clip-rule="evenodd" d="M85.4454 90.5353C89.2813 90.5353 92.2959 89.9769 95.392 90.5353C91.5914 95.1098 81.7515 99.2325 70.5256 99.2325C68.4667 99.2325 67.4742 99.4406 65.5523 99.2325C64.9652 98.6334 63.8945 97.7131 63.8945 97.0582C63.8945 93.4736 73.8672 90.5353 85.4454 90.5353Z" fill="#CE8829"/>
<path d="M105.339 110.102V116.624C106.151 116.177 106.305 114.954 106.996 114.45V110.102H105.339ZM98.7075 118.799C97.9579 119.025 97.8051 118.617 97.0498 118.799V114.45H98.7075V118.799ZM90.4187 120.973C89.6767 121.052 89.5227 120.928 88.761 120.973V114.45H90.4187V120.973ZM82.1299 120.973C81.3643 120.928 81.2141 121.052 80.4721 120.973V114.45H82.1299V120.973ZM73.8411 118.799C73.0858 118.617 72.9329 119.025 72.1833 118.799V114.45H73.8411V118.799ZM65.5523 116.624C64.7396 116.177 64.5855 114.954 63.8945 114.45V110.102H65.5523V116.624Z" fill="#C85929"/>
<path fill-rule="evenodd" clip-rule="evenodd" d="M44 73.1376C44 66.1418 55.8745 60.0918 70.5242 60.0918C85.1698 60.0918 97.0484 66.1418 97.0484 73.1376V84.0092C97.0484 90.9997 85.17 97.055 70.5242 97.055C55.8745 97.055 44 90.9997 44 84.0092V73.1376Z" fill="#FE9923"/>
<path fill-rule="evenodd" clip-rule="evenodd" d="M70.5242 60.0918C85.1698 60.0918 97.0484 65.9313 97.0484 73.1376C97.0484 80.3385 85.17 86.1835 70.5242 86.1835C55.8745 86.1837 44 80.3387 44 73.1376C44 65.9313 55.8745 60.0918 70.5242 60.0918Z" fill="#FECD3D"/>
<path fill-rule="evenodd" clip-rule="evenodd" d="M70.5262 60.0918C85.0287 60.0918 97.0504 66.1976 97.0504 73.1376C97.0504 73.818 97.2726 74.6577 97.0504 75.3119C94.277 75.7359 90.1736 75.3119 87.1038 75.3119C71.0917 75.3119 58.9219 69.9232 58.9219 62.2661C62.483 61.4024 66.2549 60.0918 70.5262 60.0918Z" fill="#CEA732"/>
<path fill-rule="evenodd" clip-rule="evenodd" d="M70.5236 64.4414C82.4234 64.4414 92.0745 67.3624 92.0745 70.9643C92.0745 74.5663 82.4234 77.4872 70.5236 77.4872C58.6197 77.4872 48.9727 74.5663 48.9727 70.9643C48.9727 67.3624 58.6196 64.4414 70.5236 64.4414Z" fill="#FEA832"/>
<path fill-rule="evenodd" clip-rule="evenodd" d="M70.5247 64.4415C82.407 64.4415 92.0756 67.5265 92.0756 70.9644C92.0756 71.8263 91.5225 72.3937 90.4178 73.1387C89.7029 73.1632 89.4872 73.1387 88.7601 73.1387C76.2952 73.1387 65.0531 69.1311 60.5781 64.4415C63.5627 63.9886 66.9214 64.4415 70.5247 64.4415Z" fill="#CE8829"/>
<path d="M90.4167 86.1836V92.7065C91.2293 92.2589 91.3835 91.0308 92.0745 90.5322V86.1836H90.4167ZM83.7856 94.8808C83.0362 95.1068 82.8831 94.699 82.1279 94.8808V90.5322H83.7856V94.8808ZM75.4968 97.0551C74.7549 97.1344 74.6046 97.0097 73.8391 97.0551V90.5322H75.4968V97.0551ZM67.208 97.0551C66.4464 97.0097 66.2961 97.1344 65.5503 97.0551V90.5322H67.208V97.0551ZM58.9192 94.8808C58.164 94.6984 58.011 95.1062 57.2615 94.8808V90.5322H58.9192V94.8808ZM50.6304 92.7065C49.8139 92.2589 49.6675 91.0308 48.9727 90.5322V86.1836H50.6304V92.7065Z" fill="#C85929"/>
<path fill-rule="evenodd" clip-rule="evenodd" d="M58.9219 47.0458C58.9219 40.0553 70.7964 34 85.4461 34C100.096 34 111.97 40.0551 111.97 47.0458V57.9174C111.97 64.9079 100.096 70.9632 85.4461 70.9632C70.7964 70.9632 58.9219 64.9081 58.9219 57.9174V47.0458Z" fill="#FE9923"/>
<path fill-rule="evenodd" clip-rule="evenodd" d="M85.4461 34C100.096 34 111.97 39.8448 111.97 47.0458C111.97 54.2521 100.096 60.0917 85.4461 60.0917C70.7964 60.0917 58.9219 54.2521 58.9219 47.0458C58.9219 39.845 70.7964 34 85.4461 34Z" fill="#FECD3D"/>
<path fill-rule="evenodd" clip-rule="evenodd" d="M85.4454 40.5234C97.3493 40.5234 106.996 43.4444 106.996 47.0464C106.996 50.6536 97.3493 53.5693 85.4454 53.5693C73.5456 53.5693 63.8945 50.6534 63.8945 47.0464C63.8945 43.4444 73.5455 40.5234 85.4454 40.5234Z" fill="#FEA832"/>
<path d="M105.339 60.0918V66.6147C106.151 66.1671 106.305 64.939 106.996 64.4404V60.0918H105.339ZM98.7075 68.789C97.9583 69.0158 97.8054 68.6118 97.0498 68.789V64.4404H98.7075V68.789ZM90.4187 70.9633C89.6767 71.037 89.5227 70.9179 88.761 70.9633V64.4404H90.4187V70.9633ZM82.1299 70.9633C81.3755 70.9179 81.2254 71.0388 80.4721 70.9633V64.4404H82.1299V70.9633ZM73.8411 68.789C73.0855 68.6117 72.9326 69.0158 72.1833 68.789V64.4404H73.8411V68.789ZM65.5523 66.6147C64.7396 66.1671 64.5855 64.939 63.8945 64.4404V60.0918H65.5523V66.6147Z" fill="#C85929"/>
</svg>
